{
    "asset" : {
        "generator" : "Khronos glTF Blender I/O v0.9.36",
        "version" : "2.0"
    },
    "scene" : 0,
    "scenes" : [
        {
            "name" : "Scene",
            "nodes" : [
                0
            ]
        }
    ],
    "nodes" : [
        {
            "mesh" : 0,
            "name" : "Racket"
        }
    ],
    "materials" : [
        {
            "doubleSided" : true,
            "name" : "Racket",
            "pbrMetallicRoughness" : {
                "baseColorFactor" : [
                    0.8000000715255737,
                    0.018460122868418694,
                    0.021121714264154434,
                    1
                ],
                "metallicFactor" : 0,
                "roughnessFactor" : 0.5
            }
        },
        {
            "doubleSided" : true,
            "name" : "Handle",
            "pbrMetallicRoughness" : {
                "baseColorFactor" : [
                    0.027088681235909462,
                    0.12308914214372635,
                    0.8000000715255737,
                    1
                ],
                "metallicFactor" : 0,
                "roughnessFactor" : 0.5
            }
        }
    ],
    "meshes" : [
        {
            "name" : "Curve.002",
            "primitives" : [
                {
                    "attributes" : {
                        "POSITION" : 0,
                        "NORMAL" : 1
                    },
                    "indices" : 2,
                    "material" : 0
                },
                {
                    "attributes" : {
                        "POSITION" : 3,
                        "NORMAL" : 4
                    },
                    "indices" : 5,
                    "material" : 1
                }
            ]
        }
    ],
    "accessors" : [
        {
            "bufferView" : 0,
            "componentType" : 5126,
            "count" : 167,
            "max" : [
                0.07549258321523666,
                0.004000000189989805,
                0.04590941220521927
            ],
            "min" : [
                -0.07543347775936127,
                0,
                -0.20348678529262543
            ],
            "type" : "VEC3"
        },
        {
            "bufferView" : 1,
            "componentType" : 5126,
            "count" : 167,
            "type" : "VEC3"
        },
        {
            "bufferView" : 2,
            "componentType" : 5123,
            "count" : 237,
            "type" : "SCALAR"
        },
        {
            "bufferView" : 3,
            "componentType" : 5126,
            "count" : 92,
            "max" : [
                0.017894737422466278,
                0.004999999888241291,
                0.049146153032779694
            ],
            "min" : [
                -0.017939122393727303,
                -0.0009999999310821295,
                -0.05059671401977539
            ],
            "type" : "VEC3"
        },
        {
            "bufferView" : 4,
            "componentType" : 5126,
            "count" : 92,
            "type" : "VEC3"
        },
        {
            "bufferView" : 5,
            "componentType" : 5123,
            "count" : 138,
            "type" : "SCALAR"
        }
    ],
    "bufferViews" : [
        {
            "buffer" : 0,
            "byteLength" : 2004,
            "byteOffset" : 0
        },
        {
            "buffer" : 0,
            "byteLength" : 2004,
            "byteOffset" : 2004
        },
        {
            "buffer" : 0,
            "byteLength" : 474,
            "byteOffset" : 4008
        },
        {
            "buffer" : 0,
            "byteLength" : 1104,
            "byteOffset" : 4484
        },
        {
            "buffer" : 0,
            "byteLength" : 1104,
            "byteOffset" : 5588
        },
        {
            "buffer" : 0,
            "byteLength" : 276,
            "byteOffset" : 6692
        }
    ],
    "buffers" : [
        {
            "byteLength" : 6968,
            "uri" : "Racket.bin"
        }
    ]
}
